<?xml version="1.0" standalone="no"?>
<!DOCTYPE svg PUBLIC "-//W3C//DTD SVG 20010904//EN"
 "http://www.w3.org/TR/2001/REC-SVG-20010904/DTD/svg10.dtd">
<svg version="1.0" xmlns="http://www.w3.org/2000/svg"
 width="800.000000pt" height="800.000000pt" viewBox="0 0 800.000000 800.000000"
 preserveAspectRatio="xMidYMid meet">

<g transform="translate(0.000000,800.000000) scale(0.100000,-0.100000)"
fill="#0000ff" stroke="none">
<path d="M3485 6946 c-39 -18 -62 -45 -116 -135 -24 -41 -54 -90 -67 -110 -12
-20 -25 -43 -29 -51 -3 -8 -16 -28 -27 -45 -12 -16 -26 -39 -32 -50 -34 -63
-58 -102 -70 -116 -8 -8 -14 -19 -14 -22 0 -4 -20 -38 -45 -77 -25 -39 -45
-73 -45 -77 0 -3 -6 -14 -14 -22 -12 -14 -27 -39 -70 -116 -6 -11 -23 -38 -38
-60 -14 -22 -37 -59 -49 -82 -13 -23 -78 -130 -144 -238 -66 -109 -127 -210
-136 -225 -8 -16 -24 -41 -35 -57 -10 -15 -24 -37 -30 -48 -42 -75 -58 -102
-70 -116 -8 -8 -14 -19 -14 -22 0 -4 -20 -38 -45 -77 -25 -39 -45 -73 -45 -76
0 -3 -11 -20 -24 -37 -13 -18 -34 -52 -48 -77 -13 -25 -35 -63 -50 -85 -14
-22 -37 -59 -49 -82 -19 -33 -248 -410 -346 -571 -13 -21 -30 -51 -39 -69 -9
-18 -22 -37 -30 -44 -8 -6 -14 -15 -14 -20 0 -5 -20 -40 -45 -79 -25 -39 -45
-73 -45 -76 0 -3 -10 -20 -22 -37 -13 -18 -28 -41 -34 -52 -10 -19 -114 -192
-134 -225 -5 -8 -28 -46 -51 -85 -23 -38 -55 -89 -71 -112 l-29 -43 -129 0
c-113 0 -134 -3 -167 -21 -54 -30 -57 -34 -87 -90 -34 -67 -34 -121 1 -189 22
-42 39 -58 81 -81 53 -28 54 -28 234 -27 201 1 256 11 300 56 22 23 174 264
240 382 11 19 25 42 32 50 11 15 18 26 58 99 11 20 26 43 34 52 8 8 14 18 14
22 0 3 31 55 68 114 37 59 79 128 92 153 14 25 30 52 36 60 7 8 23 34 35 56
19 33 273 452 376 622 13 20 30 51 39 69 9 18 22 37 30 44 8 6 14 15 14 20 0
5 20 40 45 79 25 39 45 72 45 75 0 3 20 36 45 75 25 39 45 74 45 79 0 5 6 14
14 20 8 7 21 26 30 44 9 18 26 49 39 69 100 164 355 586 368 608 8 16 24 41
35 57 10 15 24 37 30 48 38 69 57 102 67 114 13 15 31 45 49 81 7 14 23 39 35
56 13 17 23 36 23 43 0 32 24 -1 51 -69 16 -41 29 -75 28 -75 -1 0 14 -42 26
-75 8 -19 28 -73 46 -120 18 -47 38 -99 46 -117 7 -17 13 -36 13 -42 0 -9 21
-62 40 -101 6 -13 0 -36 -29 -105 -5 -11 -23 -60 -41 -110 -43 -120 -54 -150
-80 -215 -12 -30 -23 -59 -25 -65 -1 -5 -5 -19 -9 -30 -20 -52 -39 -103 -52
-133 -8 -18 -14 -37 -14 -43 0 -6 -6 -25 -14 -42 -15 -34 -208 -551 -214 -577
-7 -23 -6 -72 1 -103 11 -53 7 -47 459 -535 68 -73 137 -151 153 -173 37 -48
78 -71 128 -71 45 -1 79 30 270 241 62 68 173 189 247 270 199 215 208 229
217 312 3 34 -2 64 -20 110 -14 35 -28 73 -32 84 -5 11 -9 25 -10 30 -2 6 -18
51 -38 100 -36 95 -81 217 -82 225 -1 3 -8 21 -17 41 -9 20 -19 47 -22 60 -4
13 -13 40 -21 59 -13 34 -27 70 -30 80 -2 7 -14 38 -32 85 -8 22 -21 55 -29
73 -8 18 -14 37 -14 43 0 6 -6 25 -14 42 -14 33 -36 89 -60 155 -8 20 -26 69
-40 109 -20 53 -25 76 -17 90 8 15 17 36 26 63 1 3 4 12 8 20 3 8 15 42 26 75
12 33 25 69 30 80 8 17 20 48 26 65 1 3 4 12 8 20 3 8 15 42 26 75 12 33 25
69 30 80 8 18 21 50 26 65 1 3 5 18 10 33 10 36 22 31 49 -18 12 -22 33 -58
48 -80 14 -22 37 -59 49 -81 13 -23 71 -119 129 -214 58 -95 116 -191 129
-214 12 -22 35 -59 49 -81 15 -22 37 -60 50 -85 14 -25 35 -59 48 -77 13 -17
24 -34 24 -37 0 -3 20 -37 45 -76 25 -39 45 -73 45 -77 0 -3 6 -14 14 -22 12
-14 28 -41 70 -116 6 -11 20 -33 30 -48 11 -16 27 -41 35 -57 13 -22 268 -444
368 -608 13 -20 30 -51 39 -69 9 -18 22 -37 30 -44 8 -6 14 -15 14 -20 0 -5
20 -40 45 -79 25 -39 45 -73 45 -77 0 -3 10 -20 23 -37 13 -17 34 -51 48 -76
13 -25 33 -58 45 -75 12 -16 24 -37 27 -45 4 -8 17 -31 29 -51 66 -105 237
-388 262 -433 16 -28 38 -64 50 -81 12 -16 33 -52 46 -79 42 -83 104 -144 163
-161 66 -18 384 -20 425 -2 87 37 149 134 138 214 -6 48 -19 75 -56 116 -47
54 -74 62 -224 67 l-139 5 -19 33 c-22 40 -18 33 -218 362 -91 150 -172 284
-180 299 -18 30 -125 207 -143 235 -67 108 -97 157 -97 163 0 3 -6 14 -14 22
-12 14 -28 41 -70 116 -6 11 -20 33 -30 48 -11 16 -27 41 -35 57 -9 15 -90
150 -181 300 -91 149 -176 290 -189 313 -32 57 -129 216 -152 249 -11 15 -19
30 -19 34 0 3 -10 20 -22 37 -13 18 -29 42 -35 54 -7 13 -19 33 -25 46 -7 12
-22 36 -34 52 -11 17 -24 37 -27 45 -4 8 -17 31 -29 52 -13 20 -90 146 -171
280 -81 133 -152 250 -157 258 -5 8 -27 44 -47 79 -21 35 -48 80 -61 100 -12
20 -31 52 -42 71 -11 19 -26 44 -33 54 -6 11 -27 43 -44 72 -63 102 -193 124
-265 46 -15 -16 -49 -89 -81 -177 -30 -82 -61 -163 -68 -180 -7 -16 -13 -32
-14 -35 -1 -3 -4 -12 -8 -20 -3 -8 -15 -42 -26 -75 -12 -33 -25 -69 -30 -80
-12 -26 -23 -57 -26 -70 -3 -11 -37 -97 -61 -153 -17 -38 -30 -35 -39 11 -4
17 -10 37 -14 42 -3 6 -6 12 -7 15 -1 5 -4 15 -30 83 -8 20 -20 54 -28 75 -19
49 -29 76 -31 82 -1 3 -5 14 -9 25 -4 11 -14 36 -21 55 -7 19 -20 53 -28 75
-23 60 -30 79 -32 90 -2 6 -22 59 -46 118 -33 85 -50 114 -76 134 -41 31 -121
40 -168 19z m541 -1789 c6 -30 25 -80 45 -119 5 -10 9 -23 9 -30 1 -7 9 -31
20 -53 11 -22 19 -45 20 -52 0 -7 6 -27 14 -45 12 -28 23 -56 31 -78 1 -3 5
-14 9 -25 53 -140 75 -201 76 -210 0 -3 9 -25 20 -50 11 -25 20 -47 20 -50 2
-13 12 -43 24 -65 11 -23 10 -30 -8 -57 -32 -48 -299 -328 -312 -328 -7 0 -26
18 -44 40 -17 22 -62 72 -98 110 -170 178 -184 195 -177 213 4 9 8 22 9 27 2
6 6 17 9 25 13 31 79 205 81 215 2 6 8 24 15 40 6 17 19 50 28 75 8 25 22 60
30 79 8 18 16 39 18 45 1 6 5 20 9 31 16 43 34 92 49 130 16 43 29 77 32 85 3
9 17 44 28 72 14 33 32 22 43 -25z"/>
<path d="M4715 3670 c-22 -5 -47 -10 -55 -13 -8 -2 -34 -8 -57 -12 -45 -8 -50
-12 -258 -260 -42 -49 -110 -131 -153 -181 -42 -50 -115 -137 -162 -194 -248
-298 -406 -483 -520 -607 -58 -63 -110 -123 -115 -134 -6 -11 -69 -78 -140
-150 -184 -185 -282 -248 -386 -249 -99 0 -138 58 -124 184 7 73 13 79 83 90
24 3 51 10 60 15 9 5 55 23 101 41 167 65 300 161 342 247 14 29 24 70 26 101
2 50 -1 56 -36 91 -43 43 -90 55 -174 45 -97 -11 -189 -49 -292 -118 -66 -45
-266 -240 -296 -290 -31 -51 -310 -325 -373 -367 -91 -60 -146 -49 -132 27 9
43 24 72 108 194 137 202 154 227 170 261 44 92 54 146 38 204 -13 48 -40 78
-83 94 -23 9 -39 6 -95 -19 -59 -27 -88 -51 -239 -206 -95 -96 -173 -173 -173
-170 0 2 12 28 26 57 33 65 44 106 50 189 5 57 3 69 -18 100 -46 68 -135 68
-234 0 -58 -41 -191 -175 -262 -265 -31 -38 -57 -72 -59 -74 -2 -2 -6 -2 -9 2
-3 3 1 18 9 34 14 25 23 46 33 78 44 131 17 253 -59 271 -43 10 -62 7 -127
-22 -44 -20 -87 -58 -213 -187 -159 -161 -225 -243 -210 -257 14 -14 52 8 73
42 31 52 316 334 361 357 49 26 81 27 102 3 15 -16 14 -22 -15 -77 -17 -33
-124 -201 -239 -373 -115 -173 -209 -318 -209 -324 0 -7 26 -9 83 -4 45 4 90
7 99 7 10 0 27 14 40 31 21 30 58 75 220 271 108 131 302 340 372 403 71 64
134 96 159 82 40 -22 13 -85 -127 -293 -47 -70 -86 -129 -86 -132 0 -3 -13
-22 -30 -43 -16 -21 -30 -41 -30 -45 0 -4 -14 -24 -30 -45 -17 -21 -30 -41
-30 -45 0 -4 -13 -24 -30 -45 -16 -21 -30 -41 -30 -45 0 -4 -13 -24 -30 -45
-16 -21 -30 -43 -30 -49 0 -12 66 -14 146 -5 46 6 55 11 85 51 19 25 62 78 97
118 34 41 62 77 62 81 0 3 31 41 68 83 37 42 80 93 96 114 50 68 296 307 338
328 77 39 115 1 64 -66 -14 -18 -26 -36 -26 -40 0 -3 -26 -37 -57 -75 -106
-127 -170 -221 -196 -288 -25 -64 -22 -194 6 -251 33 -66 99 -93 162 -66 72
31 258 196 391 347 l59 67 0 -92 c0 -158 55 -267 157 -314 66 -30 185 -21 260
20 108 59 322 251 409 369 19 25 66 82 104 126 95 108 122 118 51 17 -50 -70
-139 -251 -151 -306 -24 -107 10 -200 85 -232 33 -13 99 -15 130 -2 88 35 305
231 442 400 128 157 235 254 154 140 -50 -71 -139 -251 -151 -306 -16 -68 -5
-150 24 -186 53 -65 137 -76 226 -32 64 32 213 165 327 293 86 96 125 126 97
74 -8 -14 -10 -58 -6 -127 4 -91 9 -114 33 -160 85 -163 279 -136 494 69 l65
62 70 2 c39 1 75 5 80 8 6 3 23 8 39 12 72 18 153 88 306 269 57 68 80 88 80
72 0 -3 -20 -36 -45 -75 -25 -39 -45 -72 -45 -75 0 -2 -14 -27 -31 -56 -16
-28 -41 -84 -54 -124 -22 -68 -23 -78 -11 -134 19 -94 82 -147 164 -137 80 9
150 53 268 168 l112 109 3 -84 c3 -69 8 -90 29 -119 45 -67 99 -84 200 -63 92
19 159 57 325 184 54 41 62 44 129 46 118 5 173 30 269 126 64 64 83 99 53 99
-8 0 -43 -29 -78 -64 -77 -77 -151 -117 -219 -118 -27 -1 -52 2 -56 5 -3 4 5
20 19 35 44 46 125 168 162 239 52 104 57 118 63 196 4 51 2 62 -18 83 -22 24
-60 31 -94 18 -27 -11 -54 -79 -65 -166 -17 -144 -40 -223 -90 -308 -16 -28
-30 -55 -30 -60 0 -6 -44 -54 -98 -108 -115 -114 -199 -163 -295 -170 -50 -4
-61 -1 -83 19 -13 12 -24 33 -24 46 0 30 43 119 103 211 26 40 47 74 47 76 0
2 24 40 53 84 73 110 71 107 128 202 28 47 60 96 70 109 35 44 27 49 -73 48
l-91 -1 -46 -71 c-25 -38 -48 -74 -51 -80 -3 -5 -28 -43 -55 -84 -28 -41 -55
-83 -61 -93 -40 -68 -199 -252 -297 -345 -122 -115 -226 -154 -262 -99 -13 19
-14 29 -5 45 6 12 8 21 5 21 -4 0 3 13 14 29 12 16 21 32 21 36 0 7 100 177
130 220 14 20 71 113 95 153 6 10 20 32 33 49 12 17 22 34 22 38 0 4 14 24 30
45 17 21 30 41 30 45 0 5 11 23 25 41 40 52 36 55 -72 50 l-98 -4 -149 -153
c-82 -85 -172 -183 -201 -219 -29 -36 -68 -79 -87 -96 -68 -60 -191 -104 -231
-82 -18 9 -18 10 0 31 45 51 117 187 128 242 21 104 6 193 -41 245 -55 60
-136 77 -249 51 -134 -32 -329 -172 -460 -332 -96 -117 -365 -387 -430 -431
-79 -54 -144 -64 -170 -25 -14 22 -15 32 -6 60 15 43 41 95 69 134 12 17 22
34 22 38 0 3 11 21 25 39 14 18 25 35 25 38 0 3 24 42 53 85 28 44 57 86 62
95 6 9 33 49 60 90 28 40 52 78 55 83 3 6 82 125 175 265 94 140 172 260 174
265 2 6 17 26 32 46 16 20 29 40 29 44 0 4 14 24 30 45 17 21 30 41 30 45 0 4
14 24 30 45 17 21 30 41 30 45 0 4 14 24 30 45 17 21 30 41 30 45 0 4 14 24
30 45 17 21 30 41 30 45 0 4 14 24 30 45 17 21 30 41 30 46 0 4 7 16 17 26 22
25 16 27 -42 17 -27 -5 -61 -11 -75 -14 -49 -8 -68 -20 -102 -65 -19 -25 -37
-52 -41 -60 -4 -8 -31 -49 -62 -90 -68 -93 -102 -142 -177 -250 -32 -47 -81
-116 -109 -155 -27 -38 -66 -93 -85 -122 -19 -28 -41 -57 -49 -63 -8 -7 -15
-17 -15 -23 0 -5 -16 -29 -35 -53 -19 -23 -35 -45 -35 -49 0 -8 -148 -178
-274 -314 -54 -58 -108 -122 -121 -141 -32 -48 -298 -308 -363 -355 -70 -49
-140 -60 -165 -24 -10 14 -14 32 -10 48 9 41 43 113 69 148 13 17 24 34 24 37
0 11 65 104 140 202 41 53 88 116 104 138 16 23 40 55 55 73 14 17 48 62 76
100 27 37 69 91 92 120 24 28 43 54 43 59 0 4 20 31 45 60 25 28 45 55 45 60
0 4 20 31 45 60 25 28 45 55 45 59 0 3 21 32 48 65 26 32 67 86 92 120 25 33
65 87 90 120 25 33 65 87 90 120 25 33 66 87 93 121 26 33 47 65 47 70 0 5 -1
8 -2 8 -2 -1 -21 -5 -43 -9z m-1469 -1046 c27 -40 6 -111 -57 -196 -28 -37
-54 -68 -58 -68 -3 0 -30 -19 -59 -43 -86 -71 -263 -150 -286 -127 -15 15 80
187 150 270 138 164 266 232 310 164z m2164 -3 c64 -44 74 -127 32 -266 -40
-133 -181 -321 -302 -404 -127 -87 -177 -99 -229 -55 -30 25 -30 27 -27 97 8
146 86 313 225 480 71 85 137 139 198 161 42 16 66 13 103 -13z"/>
</g>
</svg>
