<?xml version="1.0" standalone="no"?>
<!DOCTYPE svg PUBLIC "-//W3C//DTD SVG 20010904//EN"
 "http://www.w3.org/TR/2001/REC-SVG-20010904/DTD/svg10.dtd">
<svg version="1.0" xmlns="http://www.w3.org/2000/svg"
 width="651.000000pt" height="558.000000pt" viewBox="0 0 651.000000 558.000000"
 preserveAspectRatio="xMidYMid meet">

<g transform="translate(0.000000,558.000000) scale(0.100000,-0.100000)" >
<path d="M4926 5548 c-7 -13 -70 -122 -138 -243 -529 -933 -1081 -1789 -1431
-2217 -43 -54 -83 -96 -87 -93 -15 9 -259 324 -359 463 -300 420 -710 1075
-1121 1795 -96 169 -179 307 -184 307 -5 0 -41 -24 -80 -52 -354 -262 -670
-704 -926 -1298 -34 -80 -64 -146 -65 -148 -2 -2 -112 68 -246 156 -299 194
-274 179 -266 159 15 -38 39 -324 56 -665 16 -312 21 -366 36 -382 48 -53 354
-235 720 -428 259 -136 383 -197 388 -192 2 3 72 136 156 295 84 160 155 292
157 294 2 2 111 -101 242 -230 283 -280 445 -427 897 -814 503 -430 585 -500
595 -503 18 -6 754 624 1160 993 91 82 258 242 373 354 114 112 209 202 210
200 2 -2 73 -136 158 -296 85 -161 158 -293 162 -293 9 0 313 161 682 361 110
59 252 143 315 186 l115 78 7 90 c4 50 14 221 23 380 8 160 20 331 26 380 6
50 9 113 7 142 l-3 52 -227 -149 c-125 -82 -236 -154 -247 -159 -17 -10 -23
-1 -62 92 -151 363 -350 709 -548 954 -94 117 -285 304 -398 391 l-82 62 -15
-22z m-3003 -623 c605 -1022 898 -1469 1221 -1863 55 -68 107 -131 114 -140
12 -15 18 -13 54 28 321 356 925 1280 1500 2290 77 135 141 247 144 249 5 5
134 -102 225 -187 272 -256 572 -736 765 -1225 22 -55 43 -96 50 -93 6 2 110
70 232 150 122 80 222 141 222 137 0 -5 -7 -100 -14 -212 -8 -112 -20 -310
-26 -439 -13 -266 -13 -264 -96 -314 -212 -125 -612 -350 -768 -431 -177 -91
-190 -96 -203 -79 -7 10 -81 147 -164 306 -83 158 -155 288 -159 288 -4 0 -45
-39 -90 -87 -218 -231 -679 -658 -1105 -1024 -418 -358 -544 -461 -557 -456
-32 12 -746 625 -1023 877 -240 219 -553 519 -640 614 -47 52 -77 77 -83 71
-5 -6 -78 -140 -162 -300 -84 -159 -156 -294 -160 -299 -21 -22 -917 471
-1012 556 l-38 33 -15 295 c-8 162 -20 361 -26 443 -7 81 -10 150 -7 153 3 3
106 -60 229 -140 123 -80 227 -142 230 -138 4 4 26 54 49 112 147 363 363 740
573 1000 97 120 253 275 346 344 l64 47 35 -63 c19 -35 152 -261 295 -503z"/>
<path d="M3137 5059 c-218 -18 -509 -94 -809 -211 -173 -67 -204 -104 -158
-190 46 -86 332 -528 342 -528 6 0 31 17 57 38 61 51 153 112 220 147 l54 29
46 -26 46 -26 67 39 c37 22 113 58 168 80 l101 40 147 -66 c215 -98 194 -92
244 -66 l44 24 44 -23 c57 -29 148 -90 226 -151 l61 -48 176 278 c183 286 194
311 166 363 -15 27 -120 74 -319 143 -376 129 -663 177 -923 154z m361 -64
c291 -41 829 -218 840 -277 2 -13 -218 -377 -303 -501 -11 -16 -15 -15 -51 14
-69 54 -251 159 -278 159 -14 0 -41 -7 -60 -16 l-34 -17 -160 72 c-89 39 -170
71 -180 71 -29 0 -143 -45 -249 -98 l-93 -46 -31 18 c-53 31 -92 18 -243 -83
l-136 -91 -47 72 c-188 295 -263 420 -263 443 0 22 9 30 58 52 212 94 546 193
767 228 112 18 334 18 463 0z"/>
<path d="M3160 4372 c-47 -21 -116 -57 -154 -81 l-70 -42 -30 23 c-52 38 -92
31 -188 -34 -46 -31 -108 -79 -138 -106 l-55 -50 197 -293 c212 -318 333 -485
466 -648 68 -83 87 -101 96 -90 6 8 57 72 113 142 56 70 145 187 196 260 109
153 416 612 419 626 4 15 -148 139 -223 184 -75 44 -94 45 -143 12 -20 -14
-39 -25 -41 -25 -2 0 -24 13 -48 30 -69 46 -231 121 -273 126 -30 4 -58 -4
-124 -34z m229 -62 c45 -22 114 -59 152 -81 l69 -41 38 26 c61 42 77 37 224
-76 49 -37 76 -64 71 -71 -3 -7 -87 -132 -185 -278 -165 -248 -366 -526 -451
-627 l-35 -42 -89 112 c-121 154 -261 350 -439 617 l-149 223 45 41 c62 54
171 127 192 127 10 0 32 -9 50 -20 18 -11 40 -20 49 -20 9 0 82 34 162 75 96
49 158 75 180 75 18 0 70 -18 116 -40z"/>
<path d="M3169 4241 c-12 -17 -74 -124 -138 -238 -90 -161 -121 -209 -138
-211 -12 -2 -27 -10 -33 -18 -28 -33 44 -61 83 -31 9 6 69 107 133 222 64 116
118 212 119 213 2 2 13 -15 25 -37 l21 -42 -36 -63 c-19 -34 -35 -71 -35 -82
0 -21 86 -174 98 -174 4 0 12 4 18 8 15 10 94 150 94 168 0 7 -16 42 -36 78
l-35 65 21 42 22 42 77 -139 c43 -77 98 -175 122 -219 47 -85 73 -104 123 -91
47 12 29 56 -22 56 -12 0 -55 68 -135 215 -65 118 -127 226 -138 239 -26 33
-44 25 -78 -35 l-27 -48 -25 45 c-34 64 -53 72 -80 35z m130 -327 l-23 -43
-25 41 -24 41 23 44 23 44 25 -42 25 -42 -24 -43z"/>
<path d="M4984 3257 c-14 -25 -519 -512 -677 -654 -355 -317 -1007 -863 -1029
-863 -15 0 -102 70 -423 340 -549 461 -812 697 -1119 1003 -98 98 -182 175
-187 170 -4 -4 -73 -129 -153 -278 -79 -148 -151 -274 -159 -279 -10 -7 -87
29 -273 127 -299 157 -306 160 -337 148 -30 -12 -43 -45 -58 -151 -14 -93 -18
-418 -6 -462 6 -24 -1 -36 -58 -99 -76 -83 -125 -176 -157 -304 -20 -79 -23
-114 -23 -295 0 -172 4 -223 22 -315 57 -279 173 -517 327 -671 107 -107 175
-133 480 -189 l139 -25 161 -102 c89 -56 258 -160 376 -231 l215 -128 85 3
c99 4 176 36 246 100 l42 39 109 -20 c59 -12 118 -21 129 -21 12 0 84 -21 160
-48 l139 -47 325 0 325 0 135 47 c77 26 179 53 236 62 56 9 115 19 131 22 23
5 35 -1 66 -31 61 -60 158 -99 252 -103 l80 -4 120 69 c66 38 235 141 375 228
140 88 273 164 295 171 22 7 92 19 155 27 269 36 410 118 541 316 183 276 269
620 239 955 -6 72 -18 163 -26 201 -23 102 -83 219 -150 294 l-58 63 -1 227
c-1 264 -15 372 -52 409 -18 18 -30 22 -51 17 -14 -3 -145 -69 -289 -146 -170
-91 -270 -138 -281 -135 -11 4 -74 112 -163 277 -168 316 -163 308 -175 286z
m-2979 -507 c189 -174 379 -339 838 -729 353 -298 408 -341 438 -341 24 0 237
172 644 520 411 352 556 484 834 756 121 119 225 213 230 210 14 -9 131 -233
131 -251 0 -18 -103 -183 -167 -269 -58 -77 -439 -457 -558 -557 -222 -187
-348 -268 -685 -444 -182 -95 -212 -114 -266 -171 -69 -72 -93 -84 -171 -84
-69 0 -110 20 -146 70 -38 53 -77 79 -312 200 -378 195 -479 267 -840 600
-191 176 -332 321 -400 410 -61 79 -145 218 -145 238 0 9 31 73 70 142 l70
127 137 -139 c76 -77 210 -206 298 -288z m-1086 34 c283 -152 318 -164 362
-121 14 14 45 64 69 111 25 47 48 86 51 86 4 0 61 -75 127 -167 l121 -166
-105 -63 c-127 -75 -231 -153 -325 -241 -83 -78 -92 -92 -99 -157 l-5 -49 -44
63 c-110 157 -223 231 -366 238 l-83 4 -6 46 c-9 70 -7 328 4 422 13 111 18
130 32 130 6 0 126 -61 267 -136z m5002 96 c19 -89 31 -301 23 -410 -4 -63 -9
-118 -10 -122 -1 -5 -2 -12 -3 -17 0 -5 -40 -10 -88 -13 -70 -3 -99 -10 -142
-31 -78 -40 -143 -98 -211 -189 l-60 -81 0 42 c0 62 -17 87 -130 186 -119 105
-238 193 -332 244 -37 20 -68 39 -68 42 0 4 25 37 57 75 47 58 137 189 178
259 9 15 19 1 65 -85 60 -112 87 -140 134 -140 20 0 119 48 291 140 143 77
267 138 275 137 8 -1 17 -18 21 -37z m-4198 -547 c20 -16 105 -87 189 -159
322 -276 483 -389 853 -598 215 -122 247 -144 305 -205 83 -88 113 -103 206
-103 91 0 150 25 190 83 41 59 77 84 327 228 407 234 551 333 895 619 93 77
179 145 191 152 16 8 40 9 88 1 75 -12 113 -33 113 -62 0 -34 -60 -366 -86
-479 -43 -183 -134 -473 -171 -540 -78 -143 -174 -225 -385 -330 -159 -79
-354 -145 -555 -189 -197 -43 -207 -42 -365 28 -73 32 -151 64 -172 71 -66 21
-131 7 -293 -64 -82 -36 -165 -67 -184 -68 -64 -3 -385 70 -535 123 -165 58
-435 211 -516 291 -54 54 -97 148 -168 363 -74 229 -112 381 -145 580 -32 195
-32 198 8 229 81 62 153 72 210 29z m-882 -76 c74 -36 150 -112 220 -220 54
-84 57 -92 69 -185 35 -291 93 -491 204 -707 l71 -140 0 -115 c0 -85 -5 -129
-18 -170 -26 -76 -83 -159 -124 -178 -31 -15 -42 -14 -171 7 -187 31 -184 30
-137 52 54 27 88 61 118 122 45 89 57 158 57 318 0 241 -45 445 -146 655 -57
121 -154 263 -212 314 -102 87 -213 117 -290 76 -19 -10 -35 -16 -37 -14 -9 9
114 176 145 196 31 21 45 23 115 20 63 -2 92 -9 136 -31z m5107 19 c51 -27
137 -133 156 -193 l7 -22 -48 21 c-125 56 -234 4 -369 -175 -124 -164 -206
-353 -255 -587 -27 -129 -32 -382 -10 -470 33 -132 89 -216 166 -250 l40 -17
-54 -12 c-98 -21 -223 -41 -257 -41 -48 0 -97 47 -141 138 l-38 76 1 136 0
135 66 125 c108 204 156 364 197 663 20 138 24 152 61 214 80 130 169 215 268
254 58 22 171 25 210 5z m-4559 -82 c6 -15 39 -137 71 -272 95 -390 171 -621
245 -742 51 -84 145 -167 251 -220 150 -76 215 -160 299 -384 39 -106 89 -290
100 -367 6 -40 4 -49 -17 -69 -29 -28 -135 -79 -180 -86 l-33 -6 -68 209 c-81
250 -129 356 -189 415 -24 24 -92 72 -152 108 -136 81 -220 158 -290 263 -166
251 -252 545 -272 934 -8 150 -3 160 99 209 90 42 120 43 136 8z m3907 -8 c86
-43 104 -71 104 -158 0 -151 -47 -444 -96 -601 -98 -310 -255 -528 -469 -647
-118 -66 -182 -121 -217 -187 -14 -26 -63 -160 -108 -297 l-82 -248 -42 6
c-63 11 -179 77 -190 109 -21 58 68 368 159 553 65 133 107 176 246 249 132
70 211 149 272 275 78 159 149 396 237 785 18 77 37 149 43 160 23 46 53 46
143 1z m-4648 -146 c136 -62 301 -313 376 -573 51 -176 61 -243 61 -417 0
-131 -4 -177 -18 -225 -81 -265 -278 -258 -462 17 -128 190 -185 359 -224 663
-16 125 -16 155 -5 272 16 163 39 216 114 262 44 26 101 27 158 1z m5409 1
c91 -42 118 -128 117 -381 0 -261 -39 -449 -133 -646 -164 -344 -380 -479
-500 -314 -66 92 -76 135 -76 345 0 212 11 285 70 462 103 308 299 553 445
553 19 0 54 -9 77 -19z m-4367 -1281 c108 -57 195 -141 238 -230 24 -49 162
-463 162 -486 0 -7 -94 43 -192 102 -68 41 -564 349 -597 371 -2 1 12 21 32
45 71 89 107 196 107 328 l0 76 83 -81 c58 -57 106 -93 167 -125z m3448 -62
c21 -60 48 -104 91 -151 15 -17 22 -31 16 -35 -173 -122 -768 -473 -781 -460
-8 8 91 325 129 416 70 166 101 198 274 297 57 33 114 76 163 125 l75 75 6
-105 c4 -66 14 -126 27 -162z m-2838 101 c49 -17 95 -38 103 -48 8 -9 28 -63
45 -121 44 -152 46 -156 102 -196 61 -44 96 -100 125 -204 l22 -79 -46 5 c-95
10 -222 37 -229 48 -4 6 -17 56 -29 111 -33 145 -91 316 -143 422 -25 51 -44
93 -42 93 1 0 43 -14 92 -31z m2005 -62 c-54 -113 -116 -297 -146 -435 -23
-102 -23 -102 -59 -112 -38 -11 -126 -26 -202 -34 l-48 -6 40 113 c25 70 48
118 61 127 101 72 116 96 164 270 14 52 28 96 30 99 5 5 186 69 197 70 4 1
-13 -41 -37 -92z m-829 1 c186 -83 215 -85 454 -29 96 22 175 39 177 38 3 -3
-35 -140 -55 -197 -14 -42 -67 -103 -121 -140 -14 -10 -37 -58 -69 -145 l-47
-130 -95 -32 c-166 -56 -287 -77 -450 -77 -132 -1 -157 2 -270 32 -69 17 -156
42 -195 54 l-69 23 -42 125 c-37 110 -46 128 -80 155 -87 69 -99 87 -132 203
-18 61 -32 115 -32 120 0 5 53 -4 118 -19 193 -46 288 -60 336 -49 23 5 93 32
156 61 215 97 216 97 416 7z"/>
<path d="M4943 2130 c-25 -26 -32 -46 -47 -130 -18 -100 -16 -120 8 -120 38 0
58 36 82 148 13 63 22 118 19 123 -11 17 -32 9 -62 -21z"/>
<path d="M1578 2115 c-3 -3 6 -63 21 -133 24 -119 28 -127 54 -136 47 -17 52
0 34 111 -15 90 -20 101 -52 131 -34 31 -46 37 -57 27z"/>
<path d="M4756 1981 c-44 -45 -76 -84 -72 -90 10 -15 85 -14 116 2 27 14 43
67 38 130 l-3 38 -79 -80z"/>
<path d="M1741 1983 c0 -16 6 -53 12 -83 l12 -55 68 -3 c49 -2 67 0 67 10 0
13 -139 158 -152 158 -5 0 -8 -12 -7 -27z"/>
<path d="M3980 1611 c-244 -144 -240 -142 -264 -174 -17 -23 -22 -47 -24 -117
-6 -150 33 -266 118 -351 81 -81 208 -103 308 -53 59 29 142 116 176 183 76
149 76 352 -1 493 -25 45 -102 128 -120 128 -5 0 -91 -49 -193 -109z"/>
<path d="M2302 1653 c-143 -182 -132 -472 24 -651 122 -140 313 -150 428 -22
49 54 93 149 108 230 12 70 -2 211 -24 237 -17 21 -463 243 -487 243 -11 0
-33 -17 -49 -37z"/>
<path d="M4601 1263 c-9 -18 0 -107 12 -119 17 -17 124 66 111 87 -6 11 -88
49 -104 49 -5 0 -13 -8 -19 -17z"/>
<path d="M1920 1221 c-66 -27 -72 -44 -30 -81 35 -29 76 -47 86 -37 10 10 9
130 -1 133 -5 1 -30 -5 -55 -15z"/>
<path d="M544 1874 c-86 -29 -121 -128 -111 -312 11 -192 62 -376 158 -562 83
-161 171 -249 257 -257 67 -7 109 24 141 102 91 228 -68 789 -277 976 -62 56
-113 72 -168 53z m175 -142 c94 -117 158 -256 206 -444 43 -176 47 -176 -163
11 -118 106 -185 173 -189 190 -4 14 -7 76 -7 136 0 93 3 118 22 159 l22 48
29 -19 c17 -10 52 -46 80 -81z m96 -527 l146 -130 -4 -95 c-3 -91 -23 -160
-46 -160 -18 0 -94 69 -127 116 -41 57 -106 181 -134 257 -16 44 -60 194 -60
205 0 5 59 -46 225 -193z"/>
<path d="M5943 1879 c-49 -14 -143 -108 -196 -196 -93 -155 -153 -326 -181
-516 -20 -133 -20 -190 0 -280 14 -58 24 -79 54 -109 31 -32 45 -38 79 -38 55
0 107 27 162 87 148 158 279 533 279 798 0 63 -25 162 -48 194 -41 55 -93 77
-149 60z m41 -113 c17 -56 21 -200 8 -267 -6 -32 -32 -60 -192 -203 -101 -91
-186 -164 -187 -162 -14 13 67 297 116 408 54 125 176 277 223 278 12 0 21
-16 32 -54z m-25 -438 c-29 -107 -83 -244 -126 -318 -39 -67 -153 -190 -176
-190 -29 0 -63 142 -52 215 5 39 18 53 186 203 100 89 183 162 184 162 2 0 -5
-33 -16 -72z"/>
</g>
</svg>
